/* XPM */
static char * duck_sprite_32_xpm[] = {
"32 32 429 2",
"  	c #000000",
". 	c #010000",
"+ 	c #040101",
"@ 	c #090202",
"# 	c #0C0203",
"$ 	c #030005",
"% 	c #08000B",
"& 	c #0B000E",
"* 	c #0B000D",
"= 	c #09000C",
"- 	c #09000B",
"; 	c #060008",
"> 	c #020004",
", 	c #0C0302",
"' 	c #240F0B",
") 	c #351813",
"! 	c #3C1C17",
"~ 	c #3D1E17",
"{ 	c #3D1E18",
"] 	c #3D1F18",
"^ 	c #3C1E18",
"/ 	c #351A14",
"( 	c #24100B",
"_ 	c #000001",
": 	c #000004",
"< 	c #261309",
"[ 	c #56380F",
"} 	c #765115",
"| 	c #855E1C",
"1 	c #876423",
"2 	c #886728",
"3 	c #886829",
"4 	c #876729",
"5 	c #785B24",
"6 	c #563F19",
"7 	c #26140B",
"8 	c #000002",
"9 	c #00000C",
"0 	c #402412",
"a 	c #825A11",
"b 	c #B08112",
"c 	c #C4931E",
"d 	c #C79A2D",
"e 	c #C89F36",
"f 	c #C9A139",
"g 	c #C7A038",
"h 	c #B48F33",
"i 	c #836625",
"j 	c #402715",
"k 	c #000008",
"l 	c #0B0202",
"m 	c #291608",
"n 	c #442711",
"o 	c #6F4B16",
"p 	c #A87812",
"q 	c #D59D0E",
"r 	c #EAB11D",
"s 	c #EEBA30",
"t 	c #EEBE3C",
"u 	c #F0C140",
"v 	c #EDBF3F",
"w 	c #D8AC39",
"x 	c #AA852E",
"y 	c #715322",
"z 	c #452C16",
"A 	c #2A190B",
"B 	c #21090B",
"C 	c #543710",
"D 	c #835D12",
"E 	c #AA7C13",
"F 	c #CA940E",
"G 	c #E7AB0A",
"H 	c #F5B917",
"I 	c #F8BE28",
"J 	c #F7C132",
"K 	c #F8C335",
"L 	c #F6C135",
"M 	c #E8B634",
"N 	c #CCA133",
"O 	c #AD8830",
"P 	c #866827",
"Q 	c #553D19",
"R 	c #070102",
"S 	c #2F1113",
"T 	c #704C15",
"U 	c #AE7E12",
"V 	c #D59E0D",
"W 	c #E6AA09",
"X 	c #EDB008",
"Y 	c #F1B40E",
"Z 	c #F3B717",
"` 	c #F3B81D",
" .	c #F4B91D",
"..	c #F3B91F",
"+.	c #F0B828",
"@.	c #E9B735",
"#.	c #D9AE3A",
"$.	c #B18C32",
"%.	c #725522",
"&.	c #2F1013",
"*.	c #00000D",
"=.	c #341316",
"-.	c #7D5518",
";.	c #BE8B12",
">.	c #E6AA0A",
",.	c #E9AD09",
"'.	c #DEA40C",
").	c #DCA30C",
"!.	c #F0B207",
"~.	c #F2B404",
"{.	c #F2B408",
"].	c #F6BF2F",
"^.	c #EBBA37",
"/.	c #C09730",
"(.	c #7E5C24",
"_.	c #351316",
":.	c #08000A",
"<.	c #7E5718",
"[.	c #C08C11",
"}.	c #E4A90A",
"|.	c #D9A00D",
"1.	c #B88612",
"2.	c #B58313",
"3.	c #D39C0C",
"4.	c #ECAF05",
"5.	c #F3B401",
"6.	c #F4B712",
"7.	c #F7BC20",
"8.	c #EBB427",
"9.	c #C09224",
"0.	c #7D591E",
"a.	c #08000C",
"b.	c #060101",
"c.	c #1A0700",
"d.	c #311300",
"e.	c #401B04",
"f.	c #3A0F0E",
"g.	c #401A17",
"h.	c #7E5618",
"i.	c #E2A70B",
"j.	c #CF990F",
"k.	c #A37515",
"l.	c #9F7215",
"m.	c #CA9510",
"n.	c #EBAE08",
"o.	c #F4B505",
"p.	c #F2B406",
"q.	c #F1B309",
"r.	c #EFB20D",
"s.	c #E1A712",
"t.	c #B78616",
"u.	c #785219",
"v.	c #351317",
"w.	c #15000E",
"x.	c #140406",
"y.	c #0F0204",
"z.	c #0F0304",
"A.	c #100304",
"B.	c #0E0303",
"C.	c #020001",
"D.	c #391801",
"E.	c #693104",
"F.	c #803D0A",
"G.	c #743312",
"H.	c #5B2918",
"I.	c #7F5718",
"J.	c #C08D11",
"K.	c #E5AA0A",
"L.	c #C38F11",
"M.	c #EDB007",
"N.	c #F4B506",
"O.	c #EBAE06",
"P.	c #DEA307",
"Q.	c #C8900A",
"R.	c #A07011",
"S.	c #664117",
"T.	c #2A0017",
"U.	c #0C0012",
"V.	c #10000E",
"W.	c #0A000C",
"X.	c #0E000D",
"Y.	c #18000E",
"Z.	c #22020F",
"`.	c #250A0E",
" +	c #1C0808",
".+	c #0A0202",
"++	c #4C2103",
"@+	c #864008",
"#+	c #A24F0F",
"$+	c #924414",
"%+	c #6D3218",
"&+	c #BC8A12",
"*+	c #EAAE08",
"=+	c #E3A80A",
"-+	c #E2A70A",
";+	c #EAAD08",
">+	c #F0B306",
",+	c #F3B506",
"'+	c #F1B306",
")+	c #E5A908",
"!+	c #CD940B",
"~+	c #AE7B0F",
"{+	c #8C6016",
"]+	c #67431B",
"^+	c #4B2B1C",
"/+	c #46281B",
"(+	c #482B1A",
"_+	c #482A1A",
":+	c #472A1A",
"<+	c #44251A",
"[+	c #3E1E19",
"}+	c #351516",
"|+	c #260C0E",
"1+	c #110304",
"2+	c #481F02",
"3+	c #803E08",
"4+	c #9A4B0D",
"5+	c #8C4212",
"6+	c #662F14",
"7+	c #6E4A14",
"8+	c #A57812",
"9+	c #CB960F",
"0+	c #D89F0C",
"a+	c #DDA20A",
"b+	c #E3A708",
"c+	c #EBAE07",
"d+	c #F4B606",
"e+	c #E7AB07",
"f+	c #D1980A",
"g+	c #BA8512",
"h+	c #A87B1E",
"i+	c #9B7528",
"j+	c #94732B",
"k+	c #93722C",
"l+	c #95742C",
"m+	c #92712B",
"n+	c #826227",
"o+	c #634521",
"p+	c #402019",
"q+	c #260410",
"r+	c #120305",
"s+	c #311301",
"t+	c #5A2904",
"u+	c #6D3306",
"v+	c #632C08",
"w+	c #471E0B",
"x+	c #4D320E",
"y+	c #765312",
"z+	c #976B15",
"A+	c #A87813",
"B+	c #B8830F",
"C+	c #CB930B",
"D+	c #E0A508",
"E+	c #EFB107",
"F+	c #EDB006",
"G+	c #E3A806",
"H+	c #DAA214",
"I+	c #D6A327",
"J+	c #D3A735",
"K+	c #D2A83A",
"L+	c #D1A83B",
"M+	c #D1A83A",
"N+	c #D3A93B",
"O+	c #CEA539",
"P+	c #B58F33",
"Q+	c #846428",
"R+	c #492B1B",
"S+	c #1C000F",
"T+	c #110205",
"U+	c #0E0300",
"V+	c #1E0900",
"W+	c #290F01",
"X+	c #230B01",
"Y+	c #170602",
"Z+	c #231107",
"`+	c #3A2011",
" @	c #543316",
".@	c #6F4816",
"+@	c #8B5E13",
"@@	c #AD7A10",
"#@	c #CF970B",
"$@	c #E6AA07",
"%@	c #EDAF05",
"&@	c #ECAF06",
"*@	c #EBAE05",
"=@	c #EAAC04",
"-@	c #E9AE13",
";@	c #EAB329",
">@	c #EBB938",
",@	c #EBBC3E",
"'@	c #EBBC3F",
")@	c #EDBE3F",
"!@	c #E8B93D",
"~@	c #CBA136",
"{@	c #937029",
"]@	c #4D2F1B",
"^@	c #100105",
"/@	c #000003",
"(@	c #02000A",
"_@	c #250211",
":@	c #462414",
"<@	c #684115",
"[@	c #906313",
"}@	c #B9840D",
"|@	c #D39907",
"1@	c #DB9F05",
"2@	c #DA9E05",
"3@	c #DA9E04",
"4@	c #DA9E03",
"5@	c #DBA10E",
"6@	c #DDA520",
"7@	c #DEAA2D",
"8@	c #DFAC31",
"9@	c #DFAD32",
"0@	c #DFAD31",
"a@	c #E1AE32",
"b@	c #DDAB31",
"c@	c #C1942C",
"d@	c #8C6723",
"e@	c #4C2C1A",
"f@	c #190010",
"g@	c #010001",
"h@	c #040003",
"i@	c #1A0707",
"j@	c #2E1310",
"k@	c #4B2917",
"l@	c #764D16",
"m@	c #A26F0F",
"n@	c #BE8507",
"o@	c #C68B04",
"p@	c #C58A04",
"q@	c #C48A04",
"r@	c #C58B07",
"s@	c #C58C0F",
"t@	c #C58E16",
"u@	c #C68F19",
"v@	c #C58F19",
"w@	c #C18B19",
"x@	c #AA791A",
"y@	c #7D541B",
"z@	c #452518",
"A@	c #1D0010",
"B@	c #100205",
"C@	c #19000E",
"D@	c #371517",
"E@	c #694118",
"F@	c #976510",
"G@	c #B57C06",
"H@	c #BD8203",
"I@	c #BC8203",
"J@	c #BB8104",
"K@	c #BB8103",
"L@	c #BB8102",
"M@	c #BC8102",
"N@	c #B87F03",
"O@	c #B07807",
"P@	c #A36F0B",
"Q@	c #8C5D10",
"R@	c #664013",
"S@	c #3A1C13",
"T@	c #19000D",
"U@	c #0D0203",
"V@	c #080102",
"W@	c #17000E",
"X@	c #361417",
"Y@	c #684018",
"Z@	c #966510",
"`@	c #B47C06",
" #	c #BB8003",
".#	c #BB8002",
"+#	c #BB8101",
"@#	c #B47B04",
"##	c #9E6A0C",
"$#	c #825412",
"%#	c #643E13",
"&#	c #46280F",
"*#	c #26100A",
"=#	c #0C0005",
"-#	c #050101",
";#	c #17000C",
">#	c #331414",
",#	c #613C16",
"'#	c #8E5F10",
")#	c #A9730B",
"!#	c #B07909",
"~#	c #AF7809",
"{#	c #B07809",
"]#	c #A7710C",
"^#	c #8A5B11",
"/#	c #5F3A15",
"(#	c #371913",
"_#	c #1F090A",
":#	c #0D0302",
"<#	c #0E0007",
"[#	c #260D0D",
"}#	c #4D2D10",
"|#	c #714A12",
"1#	c #885A13",
"2#	c #8C5D13",
"3#	c #8B5D13",
"4#	c #855812",
"5#	c #6B4512",
"6#	c #412410",
"7#	c #16000D",
"8#	c #000005",
"9#	c #100404",
"0#	c #2D160A",
"a#	c #472812",
"b#	c #573317",
"c#	c #5A3518",
"d#	c #553216",
"e#	c #432611",
"f#	c #271309",
"g#	c #0B0103",
"h#	c #21070E",
"i#	c #2B0A13",
"j#	c #2E0C15",
"k#	c #2D0B15",
"l#	c #2A0A13",
"m#	c #1F060C",
"n#	c #0C0103",
"o#	c #040002",
"p#	c #0F0006",
"q#	c #150009",
"r#	c #16010A",
"s#	c #140009",
"t#	c #0D0005",
"u#	c #030001",
"v#	c #020000",
"                                                                ",
"                                                                ",
"                                                                ",
"                . + @ # # # # # @ + .                           ",
"                  $ % & * = - - ; >                             ",
"                , ' ) ! ~ { ] ^ / ( ,                           ",
"            _ : < [ } | 1 2 3 4 5 6 7 8 _                       ",
"            : 9 0 a b c d e f g h i j k 8                       ",
"      . _ l m n o p q r s t u v w x y z A l   .                 ",
"      + $ B C D E F G H I J K L M N O P Q B > +                 ",
"      R % S T U V W X Y Z `  ...+.@.#.$.%.&.; R                 ",
"      8 *.=.-.;.>.,.'.).G !.~.{. .].^./.(._.:.R                 ",
"      8 *.=.<.[.}.|.1.2.3.4.5.~.6.7.8.9.0._.a.b.                ",
"  c.d.e.f.g.h.[.i.j.k.l.m.n.o.p.q.r.s.t.u.v.w.x.# y.z.A.B.@ C.  ",
"  D.E.F.G.H.I.J.K.'.L.J.|.M.N.p.O.P.Q.R.S.T.U.V.W.X.Y.Z.`. +.+  ",
"  ++@+#+$+%+-.&+}.*+=+-+;+>+,+'+)+!+~+{+]+^+/+(+_+:+<+[+}+|+1+  ",
"  2+3+4+5+6+7+8+9+0+a+b+c+'+d+p.e+f+g+h+i+j+k+j+l+m+n+o+p+q+r+  ",
"  s+t+u+v+w+x+y+z+A+B+C+D+E+d+p.F+G+H+I+J+K+L+M+N+O+P+Q+R+S+T+  ",
"  U+V+W+X+Y+Z+`+ @.@+@@@#@$@%@&@*@=@-@;@>@,@'@,@)@!@~@{@]@w.^@  ",
"            /@(@_@:@<@[@}@|@1@2@3@4@5@6@7@8@9@0@a@b@c@d@e@f@T+  ",
"            g@h@i@j@k@l@m@n@o@p@q@q@r@s@t@u@u@v@u@w@x@y@z@A@B@  ",
"                @ C@D@E@F@G@H@I@J@J@K@K@L@M@M@N@O@P@Q@R@S@T@U@  ",
"                V@W@X@Y@Z@`@I@J@J@J@K@ #.#+#+#@###$#%#&#*#=#-#  ",
"                @ ;#>#,#'#)#!#~#~#~#~#~#~#~#{#]#^#/#(#_#:#  .   ",
"                -#<#[#}#|#1#2#2#3#3#3#3#3#2#2#4#5#6#7#8#        ",
"                . C.9#0#a#b#c#c#c#c#c#c#c#c#c#d#e#f#g#g@.       ",
"                      B@h#i#j#k#k#k#k#k#k#k#k#l#m#n#            ",
"                      o#p#q#r#r#r#r#r#r#r#r#r#s#t#u#            ",
"                      . C.+ + + + + + + + + + + v#.             ",
"                                                                ",
"                                                                ",
"                                                                "};
