/* XPM */
static char * exit_sprite_32_xpm[] = {
"32 32 185 2",
"  	c #000000",
". 	c #010000",
"+ 	c #020000",
"@ 	c #040101",
"# 	c #030101",
"$ 	c #110304",
"% 	c #190607",
"& 	c #1D0709",
"* 	c #1E0809",
"= 	c #1D0809",
"- 	c #180607",
"; 	c #0F0304",
"> 	c #0B0202",
", 	c #1F080A",
"' 	c #2B0E10",
") 	c #301113",
"! 	c #311114",
"~ 	c #311113",
"{ 	c #2A0E10",
"] 	c #080102",
"^ 	c #070102",
"/ 	c #170607",
"( 	c #270E10",
"_ 	c #341517",
": 	c #39171A",
"< 	c #3A181B",
"[ 	c #321417",
"} 	c #260D0F",
"| 	c #150506",
"1 	c #060101",
"2 	c #100303",
"3 	c #1D0708",
"4 	c #260D10",
"5 	c #2E1516",
"6 	c #341A1C",
"7 	c #361C1E",
"8 	c #331A1B",
"9 	c #2D1316",
"0 	c #250D0E",
"a 	c #1C0608",
"b 	c #0E0203",
"c 	c #1C0709",
"d 	c #2B0F11",
"e 	c #321517",
"f 	c #321B1C",
"g 	c #2F1E1F",
"h 	c #2C2021",
"i 	c #2C2020",
"j 	c #2C1F20",
"k 	c #2F1D1E",
"l 	c #32191B",
"m 	c #321416",
"n 	c #1A0608",
"o 	c #050101",
"p 	c #0B0203",
"q 	c #361B1D",
"r 	c #321E20",
"s 	c #2A2122",
"t 	c #242222",
"u 	c #232222",
"v 	c #2A2021",
"w 	c #321D1F",
"x 	c #35191B",
"y 	c #301316",
"z 	c #240C0E",
"A 	c #0A0202",
"B 	c #100304",
"C 	c #290E11",
"D 	c #321F20",
"E 	c #2D2121",
"F 	c #262222",
"G 	c #222323",
"H 	c #212323",
"I 	c #212222",
"J 	c #222222",
"K 	c #262121",
"L 	c #311D1E",
"M 	c #30191A",
"N 	c #2D1315",
"O 	c #270E0F",
"P 	c #0E0303",
"Q 	c #020001",
"R 	c #180507",
"S 	c #2F1F20",
"T 	c #2A2222",
"U 	c #262323",
"V 	c #242323",
"W 	c #232323",
"X 	c #252121",
"Y 	c #291F20",
"Z 	c #2F1C1E",
"` 	c #34191B",
" .	c #331416",
"..	c #290D0F",
"+.	c #1B0608",
"@.	c #2F1013",
"#.	c #371D1E",
"$.	c #2E2121",
"%.	c #232424",
"&.	c #212121",
"*.	c #242121",
"=.	c #2E1E1F",
"-.	c #371B1D",
";.	c #391719",
">.	c #2D0F12",
",.	c #3A171A",
"'.	c #2D2122",
").	c #252424",
"!.	c #222424",
"~.	c #202121",
"{.	c #232121",
"].	c #2D1E1F",
"^.	c #2E1012",
"/.	c #252323",
"(.	c #242021",
"_.	c #1B0708",
":.	c #371C1E",
"<.	c #2D2021",
"[.	c #301013",
"}.	c #1C0708",
"|.	c #1F2121",
"1.	c #232020",
"2.	c #2F1012",
"3.	c #2E2021",
"4.	c #252223",
"5.	c #242020",
"6.	c #2D1D1E",
"7.	c #381518",
"8.	c #2D0F11",
"9.	c #170506",
"0.	c #321316",
"a.	c #301E1F",
"b.	c #2B2121",
"c.	c #272222",
"d.	c #232021",
"e.	c #261F20",
"f.	c #2A1E1F",
"g.	c #2F1C1D",
"h.	c #331719",
"i.	c #311215",
"j.	c #270C0E",
"k.	c #140405",
"l.	c #250D0F",
"m.	c #331E1F",
"n.	c #202222",
"o.	c #262020",
"p.	c #321C1D",
"q.	c #301819",
"r.	c #2C1214",
"s.	c #240B0D",
"t.	c #1A0607",
"u.	c #030001",
"v.	c #130505",
"w.	c #240C0D",
"x.	c #311316",
"y.	c #36191B",
"z.	c #321E1F",
"A.	c #252222",
"B.	c #252122",
"C.	c #252021",
"D.	c #2A1F20",
"E.	c #35181A",
"F.	c #301314",
"G.	c #220A0C",
"H.	c #110404",
"I.	c #301315",
"J.	c #31191B",
"K.	c #2E1F20",
"L.	c #311819",
"M.	c #301215",
"N.	c #280C0F",
"O.	c #180506",
"P.	c #0D0203",
"Q.	c #190507",
"R.	c #230C0E",
"S.	c #2D1415",
"T.	c #381B1D",
"U.	c #33181A",
"V.	c #220B0C",
"W.	c #331415",
"X.	c #381618",
"Y.	c #381718",
"Z.	c #321315",
"`.	c #2D0E11",
" +	c #2E0F12",
"                                                                ",
"                                                                ",
"                                                                ",
"                  . + @ @ @ @ @ @ @ @ @ # + .                   ",
"                  @ $ % & * = & & = * & - ; #                   ",
"                  > , ' ) ! ~ ~ ~ ~ ! ) { & ]                   ",
"            . + ^ / ( _ : < : : : : < : [ } | 1 + .             ",
"            . 2 3 4 5 6 7 7 7 7 7 7 7 7 8 9 0 a b .             ",
"            ^ c d e f g h h i j j j i j k l m { n o             ",
"      . @ p / } e q r s t u t u u u u t v w x y z | A @         ",
"      . B , C 5 f D E F G H I I I I I J K j L M N O & P .       ",
"      Q R ' _ 6 S T U V W J J J J J J J u X Y Z `  ...| .       ",
"      # +.@.: #.$.U %.W W J J J J J J J I &.*.=.-.;.>.- .       ",
"      # a ) ,.#.'.).!.W W J J J J &.&.&.&.~.{.].-.;.^.- .       ",
"      # +.@.,.#.$./.%.W W J J J &.&.&.&.&.~.(.=.-.;.>.- .       ",
"      # _.@.,.:.$./.%.W W J J J &.&.&.&.&.~.(.=.-.;.>.- .       ",
"      # _.@.,.:.<./.G W W J J J &.&.&.&.&.~.(.=.-.;.>.- .       ",
"      # _.[.,.:.<./.G W W J J J &.&.&.&.&.~.(.].-.;.>.- .       ",
"      # }.) ,.:.<.V G W W J J J J &.&.&.~.|.1.].-.;.^.- .       ",
"      # _.2.: :.3.4.W W W J J J J J &.&.&.~.5.6.-.7.8.R .       ",
"      Q 9...0.` a.b.c.V W G J J J I I &.d.e.f.g.h.i.j.k..       ",
"      . P _.l.N l m.3.c.G H I I I I n.&.o.].p.q.r.s.t.p .       ",
"        u.1 v.w.x.y.z.b.F A.B.B.B.X *.C.D.p.E.F.G.H.1 u.        ",
"            o t...I.J.a.S K.K.K.K.K.=.=.g.L.M.N.O.u.            ",
"            . P.Q.R.S.` T.T.T.T.T.T.T.T.U.r.V.9.> .             ",
"            .   @ k.} W.X.;.Y.Y.Y.;.;.X.Z.s.H.u.                ",
"                  ] }.N.`. +8.8.8.8. +8.j.t.1                   ",
"                  # P.k.R - - - - - - R k.p u.                  ",
"                    . . . . . . . . . . . .                     ",
"                                                                ",
"                                                                ",
"                                                                "};
