/* XPM */
static char * item_sprite_32_xpm[] = {
"32 32 414 2",
"  	c #000000",
". 	c #05040B",
"+ 	c #0E0C1A",
"@ 	c #151324",
"# 	c #161426",
"$ 	c #0F0D1C",
"% 	c #06050E",
"& 	c #0D0B1B",
"* 	c #221E3B",
"= 	c #2D294C",
"- 	c #312C51",
"; 	c #302C50",
"> 	c #2E294D",
", 	c #231F3C",
"' 	c #0F0D1E",
") 	c #040309",
"! 	c #221F36",
"~ 	c #3D385B",
"{ 	c #4D4772",
"] 	c #514C78",
"^ 	c #514B78",
"/ 	c #514C79",
"( 	c #4D4873",
"_ 	c #3E3A5E",
": 	c #242239",
"< 	c #05040C",
"[ 	c #010102",
"} 	c #090719",
"| 	c #1E1B34",
"1 	c #3F3D5C",
"2 	c #615D84",
"3 	c #76729E",
"4 	c #7C78A5",
"5 	c #7773A0",
"6 	c #636087",
"7 	c #433F60",
"8 	c #201D37",
"9 	c #0A071B",
"0 	c #020105",
"a 	c #05040D",
"b 	c #1C1834",
"c 	c #363257",
"d 	c #5D5981",
"e 	c #8582AC",
"f 	c #9E9BC8",
"g 	c #A5A1CF",
"h 	c #A4A1CE",
"i 	c #A09CCA",
"j 	c #8884AF",
"k 	c #605D85",
"l 	c #3A345A",
"m 	c #1E1937",
"n 	c #080713",
"o 	c #030308",
"p 	c #080613",
"q 	c #211F34",
"r 	c #3C395A",
"s 	c #5A557D",
"t 	c #7D779E",
"u 	c #A49BBF",
"v 	c #BDB2D5",
"w 	c #C6BADC",
"x 	c #C5BADC",
"y 	c #C5B9DC",
"z 	c #C0B4D7",
"A 	c #A79DC2",
"B 	c #817AA2",
"C 	c #5D5880",
"D 	c #3F3C5D",
"E 	c #232137",
"F 	c #0A0817",
"G 	c #04030A",
"H 	c #110F1F",
"I 	c #231F3B",
"J 	c #636187",
"K 	c #8682AA",
"L 	c #A499BB",
"M 	c #C0AABA",
"N 	c #D5B8B9",
"O 	c #DCBCB8",
"P 	c #D6B9B8",
"Q 	c #C2ACBA",
"R 	c #A79ABB",
"S 	c #8984AD",
"T 	c #67648B",
"U 	c #25213D",
"V 	c #131022",
"W 	c #1B182E",
"X 	c #332E53",
"Y 	c #544F78",
"Z 	c #7C7AA5",
"` 	c #A19CC8",
" .	c #BFAFCC",
"..	c #D6B4AB",
"+.	c #E6B67F",
"@.	c #ECB66A",
"#.	c #EBB66C",
"$.	c #ECB76A",
"%.	c #E7B67C",
"&.	c #D8B4A8",
"*.	c #C1B0CA",
"=.	c #A59FCA",
"-.	c #807DA9",
";.	c #57527C",
">.	c #353056",
",.	c #1D1A31",
"'.	c #1F1C34",
").	c #3A365D",
"!.	c #595481",
"~.	c #7B78A7",
"{.	c #9C98C5",
"].	c #BCAAC3",
"^.	c #D9B196",
"/.	c #EDB449",
"(.	c #F4B500",
"_.	c #F3B500",
":.	c #EEB443",
"<.	c #DBB191",
"[.	c #BEABC0",
"}.	c #9F9AC6",
"|.	c #7D7BAA",
"1.	c #5B5785",
"2.	c #3D3760",
"3.	c #211E38",
"4.	c #201D35",
"5.	c #3D3860",
"6.	c #55507F",
"7.	c #676496",
"8.	c #7D79A7",
"9.	c #A28EA1",
"0.	c #CEA279",
"a.	c #ECB132",
"b.	c #F5B500",
"c.	c #EDB12C",
"d.	c #D1A474",
"e.	c #A68F9E",
"f.	c #7F7AA7",
"g.	c #686597",
"h.	c #575181",
"i.	c #403A63",
"j.	c #232039",
"k.	c #3D3960",
"l.	c #544D7A",
"m.	c #625984",
"n.	c #746684",
"o.	c #977B7A",
"p.	c #C19561",
"q.	c #DEA73E",
"r.	c #E7AC27",
"s.	c #E7AC22",
"t.	c #E7AC1E",
"u.	c #E8AD18",
"v.	c #E0A836",
"w.	c #C69A62",
"x.	c #9D8582",
"y.	c #79708D",
"z.	c #656089",
"A.	c #56507D",
"B.	c #3F3B63",
"C.	c #222039",
"D.	c #1F1D35",
"E.	c #3A3761",
"F.	c #595079",
"G.	c #7E6978",
"H.	c #9E7F6C",
"I.	c #B18C62",
"J.	c #B78E5F",
"K.	c #BA8E5C",
"L.	c #BC8E53",
"M.	c #BD8E46",
"N.	c #BE8E3D",
"O.	c #BF8E3B",
"P.	c #BE924D",
"Q.	c #BD9C6E",
"R.	c #B9A389",
"S.	c #A79A91",
"T.	c #857C8B",
"U.	c #5D577E",
"V.	c #3C3763",
"W.	c #211E39",
"X.	c #1D1C35",
"Y.	c #363562",
"Z.	c #5F5478",
"`.	c #977C72",
" +	c #C39B5C",
".+	c #CEA354",
"++	c #B59064",
"@+	c #937671",
"#+	c #896E6D",
"$+	c #8E7262",
"%+	c #907258",
"&+	c #8E6F53",
"*+	c #9A7D5F",
"=+	c #BCA57F",
"-+	c #D7C39A",
";+	c #CFBE9F",
">+	c #A39693",
",+	c #665E7F",
"'+	c #373362",
")+	c #1F1C39",
"!+	c #343462",
"~+	c #625578",
"{+	c #A0826E",
"]+	c #D1A552",
"^+	c #DDAE47",
"/+	c #C49C5B",
"(+	c #A2856F",
"_+	c #998478",
":+	c #9F8D7B",
"<+	c #A18E75",
"[+	c #9E8565",
"}+	c #A88C63",
"|+	c #CBB383",
"1+	c #E7D2A0",
"2+	c #DECCA5",
"3+	c #AD9F96",
"4+	c #6A6180",
"5+	c #353262",
"6+	c #1E1C39",
"7+	c #333462",
"8+	c #A0826F",
"9+	c #D1A652",
"0+	c #E4B43E",
"a+	c #DCAD46",
"b+	c #CFA65C",
"c+	c #CEAF79",
"d+	c #D3BD8F",
"e+	c #D4BD8D",
"f+	c #D0B072",
"g+	c #D1AC5E",
"h+	c #E1C27D",
"i+	c #EFD79F",
"j+	c #DFCDA5",
"k+	c #AC9F96",
"l+	c #9E816F",
"m+	c #D0A553",
"n+	c #E8B738",
"o+	c #EBB830",
"p+	c #E8B947",
"q+	c #EBC571",
"r+	c #EFD290",
"s+	c #EFD291",
"t+	c #ECC671",
"u+	c #EABE58",
"v+	c #F0CB79",
"w+	c #F2D99D",
"x+	c #DECCA4",
"y+	c #AB9E96",
"z+	c #696180",
"A+	c #9E806F",
"B+	c #E9B837",
"C+	c #EEBB2C",
"D+	c #EDBC3C",
"E+	c #EFC45D",
"F+	c #F2CC77",
"G+	c #F2CC78",
"H+	c #EFC45E",
"I+	c #EEC051",
"J+	c #F3CE79",
"K+	c #F4DA9D",
"L+	c #E9B738",
"M+	c #EDBA31",
"N+	c #EBBA37",
"O+	c #ECBC43",
"P+	c #ECBE4E",
"Q+	c #ECBE4D",
"R+	c #ECBB40",
"S+	c #ECBE4C",
"T+	c #F2CD7A",
"U+	c #F3DA9D",
"V+	c #EDBA32",
"W+	c #EBB935",
"X+	c #EBB934",
"Y+	c #EBB932",
"Z+	c #EBB82D",
"`+	c #ECBD4A",
" @	c #F2CE7B",
".@	c #F3DA9E",
"+@	c #ECBD49",
"@@	c #F2CD7B",
"#@	c #625678",
"$@	c #E9B838",
"%@	c #EBB933",
"&@	c #ECBC47",
"*@	c #F1CA72",
"=@	c #F2D592",
"-@	c #DCC69A",
";@	c #AA9A90",
">@	c #69607F",
",@	c #363363",
"'@	c #1D1C36",
")@	c #353563",
"!@	c #635679",
"~@	c #9F816F",
"{@	c #D1A653",
"]@	c #EAB837",
"^@	c #EEBB31",
"/@	c #ECBB3F",
"(@	c #F0C45C",
"_@	c #F0CA74",
":@	c #DABA7F",
"<@	c #A79182",
"[@	c #695E7D",
"}@	c #363564",
"|@	c #1F1D3A",
"1@	c #1C1B34",
"2@	c #32325F",
"3@	c #5F5375",
"4@	c #9B7E6E",
"5@	c #CDA253",
"6@	c #E5B43A",
"7@	c #EAB934",
"8@	c #EBB938",
"9@	c #EBBB43",
"0@	c #E7B950",
"a@	c #D1AA61",
"b@	c #A28573",
"c@	c #645876",
"d@	c #353461",
"e@	c #1D1C38",
"f@	c #16152A",
"g@	c #28284F",
"h@	c #514662",
"i@	c #866D61",
"j@	c #B38E53",
"k@	c #CEA345",
"l@	c #DEAF3B",
"m@	c #E9B835",
"n@	c #EDBB32",
"o@	c #EDBB31",
"p@	c #DEAF44",
"q@	c #CEA353",
"r@	c #B48F5E",
"s@	c #896F65",
"t@	c #544964",
"u@	c #2B2B51",
"v@	c #17162D",
"w@	c #0A0918",
"x@	c #13142F",
"y@	c #362E40",
"z@	c #604E4B",
"A@	c #866C50",
"B@	c #A9874F",
"C@	c #CBA145",
"D@	c #E4B439",
"E@	c #ECBA35",
"F@	c #ECBA33",
"G@	c #E5B53D",
"H@	c #CCA255",
"I@	c #A88769",
"J@	c #826A6A",
"K@	c #5E4E5B",
"L@	c #373045",
"M@	c #171730",
"N@	c #0A0A19",
"O@	c #161116",
"P@	c #352C32",
"Q@	c #564748",
"R@	c #836950",
"S@	c #B28E4F",
"T@	c #D1A54C",
"U@	c #D9AC4C",
"V@	c #D9AB4C",
"W@	c #D9AB4B",
"X@	c #D9AC4B",
"Y@	c #D2A651",
"Z@	c #B38F60",
"`@	c #7F696D",
" #	c #4D4467",
".#	c #2B2A4B",
"+#	c #161322",
"@#	c #040200",
"##	c #17141C",
"$#	c #332A34",
"%#	c #5E4C48",
"&#	c #896F5B",
"*#	c #A58567",
"=#	c #AB8A6A",
"-#	c #AB896A",
";#	c #A6856A",
">#	c #8A7165",
",#	c #5C4D5D",
"'#	c #29284E",
")#	c #051034",
"!#	c #010109",
"~#	c #020101",
"{#	c #070502",
"]#	c #191315",
"^#	c #372E3A",
"/#	c #57495D",
"(#	c #695A73",
"_#	c #6F5F7A",
":#	c #6F5F79",
"<#	c #6E5F79",
"[#	c #6A5B74",
"}#	c #584B62",
"|#	c #383043",
"1#	c #02030F",
"2#	c #020206",
"3#	c #13132B",
"4#	c #2B2A4F",
"5#	c #383763",
"6#	c #3C3A69",
"7#	c #393764",
"8#	c #2D2C51",
"9#	c #16162E",
"0#	c #060718",
"a#	c #161630",
"b#	c #1F1F3D",
"c#	c #212141",
"d#	c #1F1F3E",
"e#	c #181731",
"f#	c #090919",
"g#	c #010103",
"                                                                ",
"                      . + @ # # # # @ $ %                       ",
"                      & * = - ; ; - > , '                       ",
"                    ) ! ~ { ] ^ ^ / ( _ : <                     ",
"                [ } | 1 2 3 4 4 4 4 5 6 7 8 9 0                 ",
"                a b c d e f g h h g i j k l m n                 ",
"            o p q r s t u v w x y w z A B C D E F G             ",
"            H I D J K L M N O O O O P Q R S T 7 U V             ",
"            W X Y Z `  ...+.@.#.#.$.%.&.*.=.-.;.>.,.            ",
"            '.).!.~.{.].^./.(.(._.(.:.<.[.}.|.1.2.3.            ",
"            4.5.6.7.8.9.0.a.b.(.(.b.c.d.e.f.g.h.i.j.            ",
"            4.k.l.m.n.o.p.q.r.s.t.u.v.w.x.y.z.A.B.C.            ",
"            D.E.F.G.H.I.J.K.L.M.N.O.P.Q.R.S.T.U.V.W.            ",
"            X.Y.Z.`. +.+++@+#+$+%+&+*+=+-+;+>+,+'+)+            ",
"            X.!+~+{+]+^+/+(+_+:+<+[+}+|+1+2+3+4+5+6+            ",
"            X.7+~+8+9+0+a+b+c+d+e+f+g+h+i+j+k+4+5+6+            ",
"            X.!+~+l+m+n+o+p+q+r+s+t+u+v+w+x+y+z+5+6+            ",
"            X.!+~+A+m+B+C+D+E+F+G+H+I+J+K+x+y+z+5+6+            ",
"            X.!+~+A+m+L+M+N+O+P+Q+R+S+T+U+x+y+z+5+6+            ",
"            X.!+~+A+m+L+V+W+X+Y+o+Z+`+ @.@2+y+z+5+6+            ",
"            X.!+~+A+m+L+V+W+X+Y+o+Z++@@@.@2+y+z+5+6+            ",
"            X.!+#@l+m+$@V+W+W+W+%@o+&@*@=@-@;@>@,@6+            ",
"            '@)@!@~@{@]@^@W+W+W+X+Y+/@(@_@:@<@[@}@|@            ",
"            1@2@3@4@5@6@7@W+W+W+W+X+8@9@0@a@b@c@d@e@            ",
"            f@g@h@i@j@k@l@m@n@V+V+o@]@p@q@r@s@t@u@v@            ",
"            w@x@y@z@A@B@C@D@E@W+W+F@G@H@I@J@K@L@M@N@            ",
"                O@P@Q@R@S@T@U@V@W@X@Y@Z@`@ #.#+#                ",
"                @###$#%#&#*#=#-#-#=#;#>#,#'#)#!#                ",
"                ~#{#]#^#/#(#_#:#<#_#[#}#|#@ 1#2#                ",
"                      3#4#5#6#6#6#6#7#8#9#                      ",
"                      0#a#b#c#c#c#c#d#e#f#                      ",
"                        g#g#g#g#g#g#g#g#                        "};
