/* XPM */
static char * wall_sprite_32_xpm[] = {
"32 32 193 2",
"  	c #000000",
". 	c #010000",
"+ 	c #020000",
"@ 	c #0C0203",
"# 	c #150407",
"$ 	c #170508",
"% 	c #170408",
"& 	c #0D0204",
"* 	c #020001",
"= 	c #070102",
"- 	c #1D070A",
"; 	c #2B0D11",
"> 	c #2F1014",
", 	c #2F0F14",
"' 	c #2C0E12",
") 	c #1F080B",
"! 	c #0A0202",
"~ 	c #030001",
"{ 	c #080102",
"] 	c #200A09",
"^ 	c #3C1A16",
"/ 	c #50251F",
"( 	c #572821",
"_ 	c #562821",
": 	c #51261F",
"< 	c #401C17",
"[ 	c #230C0B",
"} 	c #0A0203",
"| 	c #1B060A",
"1 	c #391815",
"2 	c #5F2F23",
"3 	c #7A3E2D",
"4 	c #814330",
"5 	c #7C402E",
"6 	c #633225",
"7 	c #3E1B17",
"8 	c #1E080B",
"9 	c #120405",
"0 	c #260A10",
"a 	c #49211D",
"b 	c #753C2B",
"c 	c #944F36",
"d 	c #9E553A",
"e 	c #9E543A",
"f 	c #9F553A",
"g 	c #965037",
"h 	c #793F2D",
"i 	c #4E241E",
"j 	c #290D12",
"k 	c #150406",
"l 	c #140406",
"m 	c #280C11",
"n 	c #4D231F",
"o 	c #793E2D",
"p 	c #9B5239",
"q 	c #A6593D",
"r 	c #A5593C",
"s 	c #9D543A",
"t 	c #7E412F",
"u 	c #522620",
"v 	c #2C0E13",
"w 	c #160407",
"x 	c #280B11",
"y 	c #4D221F",
"z 	c #9A5238",
"A 	c #A4583C",
"B 	c #A5583C",
"C 	c #9C5339",
"D 	c #4D221E",
"E 	c #7E412E",
"F 	c #A5593D",
"G 	c #532620",
"H 	c #290B11",
"I 	c #4C221E",
"J 	c #773D2C",
"K 	c #975037",
"L 	c #A2573B",
"M 	c #A3573C",
"N 	c #160507",
"O 	c #2A0D12",
"P 	c #481F1D",
"Q 	c #6C3628",
"R 	c #874732",
"S 	c #914C35",
"T 	c #904C35",
"U 	c #8A4832",
"V 	c #70382A",
"W 	c #2D0F13",
"X 	c #170507",
"Y 	c #150506",
"Z 	c #2C0F12",
"` 	c #431C1C",
" .	c #5B2B23",
"..	c #6E3628",
"+.	c #743A2A",
"@.	c #753A2A",
"#.	c #6F3729",
"$.	c #5D2C23",
"%.	c #461E1C",
"&.	c #180607",
"*.	c #160506",
"=.	c #411B1B",
"-.	c #542520",
";.	c #632F24",
">.	c #693225",
",.	c #683225",
"'.	c #683125",
").	c #653025",
"!.	c #622E24",
"~.	c #663025",
"{.	c #642F24",
"].	c #562721",
"^.	c #190608",
"/.	c #5B2A21",
"(.	c #6E3526",
"_.	c #743928",
":.	c #743828",
"<.	c #733828",
"[.	c #6D3426",
"}.	c #632E24",
"|.	c #6C3426",
"1.	c #5E2C22",
"2.	c #461D1C",
"3.	c #2B0F12",
"4.	c #441D1C",
"5.	c #612D23",
"6.	c #773A29",
"7.	c #7E3F2B",
"8.	c #7E3E2B",
"9.	c #7D3E2A",
"0.	c #763A29",
"a.	c #6A3326",
"b.	c #622E23",
"c.	c #471E1C",
"d.	c #2B0E12",
"e.	c #451D1C",
"f.	c #783B29",
"g.	c #80402B",
"h.	c #803F2B",
"i.	c #7F3F2B",
"j.	c #7B3D2A",
"k.	c #753928",
"l.	c #713727",
"m.	c #713627",
"n.	c #6B3326",
"o.	c #5A2A21",
"p.	c #612E23",
"q.	c #6F3627",
"r.	c #532520",
"s.	c #431B1B",
"t.	c #301014",
"u.	c #7C3D2A",
"v.	c #6A3325",
"w.	c #582821",
"x.	c #441C1C",
"y.	c #7C3E2A",
"z.	c #7A3C2A",
"A.	c #653024",
"B.	c #2E1013",
"C.	c #260C0F",
"D.	c #3E1A19",
"E.	c #5B2A20",
"F.	c #703627",
"G.	c #713827",
"H.	c #5F2C22",
"I.	c #421C19",
"J.	c #290D10",
"K.	c #2D1010",
"L.	c #48201A",
"M.	c #5A2920",
"N.	c #5C2B21",
"O.	c #4A201A",
"P.	c #311311",
"Q.	c #1B0708",
"R.	c #0B0203",
"S.	c #030101",
"T.	c #160505",
"U.	c #2D1110",
"V.	c #3E1919",
"W.	c #421B1B",
"X.	c #3F1919",
"Y.	c #301211",
"Z.	c #190606",
"`.	c #040101",
" +	c #260B0F",
".+	c #2A0D11",
"++	c #270C0F",
"@+	c #1B0609",
"#+	c #060102",
"$+	c #090202",
"%+	c #110304",
"&+	c #130405",
"*+	c #110405",
"        . . . . . . . . . . . . . . . . . . . . . . . .         ",
"      + @ # $ $ % % % % % % % % % % % % % % % % % $ # & *       ",
"      = - ; > > , , , , , , , , , , , , , , , , > > ' ) !       ",
"  ~ { ] ^ / ( ( _ _ _ _ _ _ _ _ _ _ _ _ _ _ _ _ _ ( : < [ } ~   ",
"  @ | 1 2 3 4 4 4 4 4 4 4 4 4 4 4 4 4 4 4 4 4 4 4 4 5 6 7 8 &   ",
"  9 0 a b c d d e e e e e e e e e e e e e e e e e f g h i j k   ",
"  l m n o p q q r r r r r r r r r r r r r r r r q q s t u v w   ",
"  l x y o z r r A A A A A A A A A A A A A A A A B r C t u v w   ",
"  l x D o z B B A A A A A A A A A A A A A A A A A r C E u v w   ",
"  l x D o z B B A A A A A A A A A A A A A A A A A r C E u v w   ",
"  l x D o z B B A A A A A A A A A A A A A A A A A r C E u v w   ",
"  l x D o z B B A A A A A A A A A A A A A A A A A r C E u v w   ",
"  l x D o z B B A A A A A A A A A A A A A A A A A r C E u v w   ",
"  l x D o p q q r r r r r r r r r r r r r r r r F q s t G v w   ",
"  l H I J K L L L L L L L L L L L L L L L L L L L M z 5 u v N   ",
"  l O P Q R S S T T T T T T T T T T T T T T T S S S U V D W X   ",
"  Y Z `  ...+.+.+.+.+.+.+.+.+.+.+.+.+.+.+.+.+.+.+.@.#.$.%.> &.  ",
"  *.W =.-.;.>.,.,.,.,.,.,.,.,.,.,.,.,.,.,.'.).!.!.~.{.].` > ^.  ",
"  Y Z ` /.(._._.:.:.:.:.:.:.:.:.:.:.:.:._.<.[.;.}.|.(.1.2.> &.  ",
"  k 3.4.5.6.7.7.8.8.8.8.8.8.8.8.8.8.8.8.7.9.0.|.a.<.:.b.c.> &.  ",
"  k d.e.b.f.g.g.h.h.h.h.h.h.h.h.h.h.h.h.h.i.j.k.l.m.n.o.e.> ^.  ",
"  k 3.e.p.f.h.i.i.i.i.i.i.i.i.i.i.i.i.i.i.i.7.9.f.q.;.r.s.t.^.  ",
"  k 3.e.p.f.h.i.i.i.i.i.i.i.i.i.i.i.i.i.i.i.i.i.u.k.v.w.x.> ^.  ",
"  k 3.e.p.f.h.i.i.i.i.i.i.i.i.i.i.i.i.i.i.i.i.i.7.y.k.5.c.> &.  ",
"  Y 3.2.p.f.g.g.h.h.h.h.h.h.h.h.h.h.h.h.h.h.h.h.g.g.z.A.P B.&.  ",
"  Y 3.e.p.f.h.h.i.i.i.i.i.i.i.i.i.i.i.i.i.i.i.i.h.g.z.A.P B.&.  ",
"  9 C.D.E.F.6.6.0.0.0.0.0.0.0.0.0.0.0.0.0.0.0.0.0.6.G.H.I.J.Y   ",
"  ! ^.K.L.M.H.H.H.H.H.H.H.H.H.H.H.H.H.H.H.H.H.H.H.H.N.O.P.Q.R.  ",
"  . S.T.U.V.s.s.W.W.W.W.W.W.W.W.W.W.W.W.W.W.W.W.s.s.X.Y.Z.`..   ",
"      `.^. +.+.+.+.+.+.+.+.+.+.+.+.+.+.+.+.+.+.+.+.+++@+#+      ",
"      + $+%+&+&+&+&+&+&+&+&+&+&+&+&+&+&+&+&+&+&+&+&+*+R.*       ",
"                                                                "};
